<?xml version="1.0" standalone="no"?>
<!DOCTYPE svg PUBLIC "-//W3C//DTD SVG 20010904//EN"
 "http://www.w3.org/TR/2001/REC-SVG-20010904/DTD/svg10.dtd">
<svg version="1.0" xmlns="http://www.w3.org/2000/svg"
 width="4619.000000pt" height="4733.000000pt" viewBox="0 0 4619.000000 4733.000000"
 preserveAspectRatio="xMidYMid meet">

<g transform="translate(0.000000,4733.000000) scale(0.100000,-0.100000)"
fill="#000000" stroke="none">
<path d="M9605 47310 c-27 -5 -99 -16 -160 -24 -60 -9 -137 -25 -170 -35 -33
-11 -78 -22 -100 -26 -22 -4 -44 -10 -50 -15 -5 -4 -32 -15 -60 -23 -89 -28
-192 -65 -211 -76 -11 -5 -50 -24 -89 -41 -214 -96 -440 -245 -617 -407 -41
-37 -95 -86 -119 -108 -44 -39 -192 -201 -252 -275 -57 -71 -167 -224 -167
-232 0 -5 -10 -24 -23 -41 -30 -43 -43 -65 -67 -112 -11 -22 -24 -47 -29 -55
-4 -8 -17 -35 -29 -60 -11 -25 -31 -67 -44 -95 -14 -27 -28 -63 -32 -80 -4
-16 -13 -43 -21 -60 -16 -37 -59 -177 -81 -265 -17 -71 -24 -106 -54 -288
l-20 -122 0 -20964 c0 -19187 1 -20971 16 -21047 9 -46 22 -124 29 -174 17
-119 62 -284 125 -460 52 -146 227 -478 290 -550 10 -11 36 -48 60 -83 65 -97
252 -299 404 -437 76 -69 147 -130 159 -137 11 -6 26 -15 31 -20 34 -28 109
-79 166 -114 36 -21 74 -45 85 -51 11 -7 38 -22 60 -33 22 -11 47 -25 55 -30
81 -48 275 -128 378 -156 30 -8 61 -18 70 -23 9 -5 37 -12 62 -16 25 -4 63
-14 85 -22 22 -8 112 -26 200 -41 l160 -26 7253 -3 7254 -3 -228 237 c-1126
1175 -1989 2392 -2689 3792 -788 1576 -1286 3216 -1504 4946 -88 697 -116
1160 -116 1915 0 541 8 765 41 1180 240 3074 1389 5983 3311 8386 700 875
1512 1687 2387 2387 1318 1054 2787 1876 4379 2451 1285 464 2630 753 4007
860 661 52 1746 57 2228 10 l62 -6 0 9116 c0 7961 -2 9126 -15 9189 -8 40 -19
109 -24 155 -6 46 -20 113 -31 149 -11 36 -20 73 -20 82 0 18 -46 171 -65 216
-7 17 -16 41 -19 55 -4 14 -19 50 -33 80 -39 85 -61 134 -68 150 -9 25 -102
182 -150 255 -47 72 -185 248 -262 333 -97 108 -98 109 -187 187 -38 33 -85
75 -105 93 -63 57 -222 175 -316 234 -85 53 -133 79 -250 133 -96 45 -300 125
-318 125 -6 0 -24 7 -40 15 -15 8 -51 18 -80 24 -29 5 -71 16 -93 25 -21 8
-77 20 -124 26 -47 6 -123 18 -169 26 -72 12 -1677 14 -12045 13 -6578 -1
-11983 -5 -12011 -9z"/>
<path d="M2215 40109 c-83 -8 -178 -35 -220 -64 -16 -11 -39 -25 -50 -31 -22
-12 -72 -82 -113 -159 l-27 -50 -2 -289 c-1 -159 -6 -293 -10 -297 -5 -5 -334
-10 -733 -12 -694 -3 -727 -4 -780 -23 -98 -35 -165 -87 -207 -159 -24 -40
-45 -65 -55 -65 -17 0 -18 -37 -18 -635 0 -598 1 -635 18 -635 11 0 30 -27 57
-81 22 -46 52 -90 70 -103 46 -36 115 -69 165 -79 25 -5 371 -12 770 -16 l725
-6 -4 -220 c-5 -300 5 -355 97 -517 50 -88 135 -132 282 -147 67 -7 640 -11
1650 -11 1394 0 1550 2 1564 16 14 14 16 190 16 1788 0 1638 -1 1775 -17 1787
-13 12 -266 14 -1562 14 -850 0 -1578 -3 -1616 -6z"/>
<path d="M37849 40102 c-18 -13 -19 -67 -19 -1787 0 -1599 2 -1775 16 -1789
14 -14 170 -16 1564 -16 1010 0 1583 4 1650 11 79 8 116 17 159 39 74 37 100
67 155 175 59 117 69 186 65 460 l-4 210 725 6 c399 4 745 11 770 16 59 12
141 55 174 90 29 31 59 79 83 136 10 23 23 37 35 37 17 0 18 24 18 635 0 598
-1 635 -17 635 -11 0 -33 25 -57 66 -43 72 -104 119 -206 158 -54 20 -71 21
-780 24 -399 1 -728 6 -733 11 -4 4 -9 138 -10 297 l-3 289 -28 50 c-65 118
-79 136 -134 171 -58 37 -104 57 -182 76 -71 18 -3216 18 -3241 0z"/>
<path d="M2145 32893 c-155 -33 -245 -103 -313 -243 l-26 -55 -3 -289 c-1
-159 -4 -291 -6 -293 -2 -2 -325 -4 -718 -6 l-714 -2 -68 -23 c-60 -21 -96
-39 -163 -86 -11 -8 -38 -41 -60 -75 -22 -35 -46 -60 -56 -61 -17 0 -18 -37
-18 -635 0 -556 2 -635 15 -635 8 0 23 -15 32 -34 77 -146 97 -169 180 -206
25 -11 73 -24 107 -30 36 -6 344 -10 757 -10 585 0 698 -2 708 -14 9 -10 10
-70 5 -223 -8 -265 0 -325 64 -452 53 -105 86 -139 177 -179 l60 -27 1639 -3
c1220 -2 1642 0 1652 9 12 10 14 289 14 1785 0 1598 -2 1774 -16 1788 -14 14
-172 16 -1597 15 -1362 -1 -1592 -3 -1652 -16z"/>
<path d="M37840 32891 c-16 -30 -14 -3553 2 -3569 15 -15 3169 -17 3263 -2
137 22 202 71 267 201 63 128 72 195 64 455 -4 110 -4 208 0 217 6 16 59 17
703 17 394 0 725 5 763 10 117 17 202 70 243 150 14 27 29 51 34 54 5 4 12 20
16 36 5 21 13 30 26 30 19 0 19 15 19 630 0 623 0 630 -20 630 -11 0 -20 6
-20 13 0 24 -90 136 -122 153 -18 9 -40 23 -49 31 -9 7 -47 24 -85 36 -68 21
-79 22 -783 24 -393 1 -716 4 -718 6 -2 2 -4 134 -6 293 l-3 289 -39 74 c-76
140 -147 192 -307 225 -69 14 -251 16 -1657 16 -1552 0 -1580 0 -1591 -19z"/>
<path d="M2170 25693 c-50 -9 -160 -44 -160 -51 0 -5 -20 -18 -44 -30 -45 -21
-82 -68 -138 -174 -22 -41 -22 -53 -25 -331 -1 -158 -5 -292 -8 -297 -4 -6
-254 -10 -698 -10 -661 0 -696 -1 -777 -20 -47 -12 -101 -31 -120 -44 -19 -12
-47 -30 -61 -39 -14 -8 -43 -45 -65 -81 -24 -41 -46 -66 -56 -66 -17 0 -18
-37 -18 -635 0 -598 1 -635 18 -635 11 0 30 -27 57 -81 52 -105 103 -146 225
-182 22 -6 316 -13 770 -16 l735 -6 -4 -215 c-4 -277 5 -344 67 -469 67 -134
140 -183 297 -202 46 -5 748 -9 1647 -9 1411 0 1568 2 1582 16 14 14 16 190
16 1788 0 1365 -3 1775 -12 1784 -9 9 -378 12 -1607 11 -878 -1 -1607 -4
-1621 -6z"/>
<path d="M34690 22104 c-849 -30 -1198 -66 -1778 -185 -721 -147 -1475 -377
-2063 -630 -114 -49 -249 -103 -300 -120 -102 -34 -149 -55 -149 -67 0 -22
-31 -43 -81 -57 -120 -31 -375 -159 -475 -239 -23 -18 -89 -54 -148 -79 -59
-26 -121 -57 -139 -70 -301 -205 -626 -397 -672 -397 -8 0 -20 -11 -27 -24
-13 -29 -109 -107 -378 -308 -446 -332 -968 -799 -1406 -1255 -121 -125 -301
-310 -401 -410 -142 -142 -185 -191 -194 -221 -14 -47 -63 -115 -179 -246 -47
-54 -104 -131 -127 -172 -86 -153 -370 -547 -417 -578 -15 -9 -26 -26 -26 -39
0 -36 -42 -114 -143 -264 -53 -80 -107 -174 -122 -213 -15 -39 -42 -92 -60
-118 -145 -204 -391 -724 -638 -1347 -226 -569 -375 -1082 -512 -1768 -181
-906 -223 -1367 -212 -2317 9 -769 44 -1221 137 -1788 58 -352 163 -837 240
-1102 178 -622 529 -1550 654 -1735 15 -21 26 -47 26 -59 1 -63 341 -677 660
-1191 151 -243 220 -365 220 -387 0 -9 31 -46 68 -84 37 -38 148 -172 247
-299 206 -265 315 -398 506 -615 585 -665 1266 -1265 2104 -1852 246 -171 290
-199 566 -358 145 -84 284 -167 307 -184 24 -17 67 -46 95 -64 81 -52 606
-309 667 -327 95 -28 309 -115 485 -198 166 -77 250 -107 309 -107 16 0 53
-14 82 -30 171 -98 1258 -381 1805 -470 625 -101 904 -120 1789 -120 780 0
1071 12 1515 61 701 77 1682 302 2180 499 66 26 215 78 330 115 213 68 356
130 850 369 346 168 792 417 1087 608 76 49 168 105 205 125 73 38 148 90 397
276 182 136 322 231 352 241 12 4 59 47 104 97 50 55 99 98 124 110 54 25 201
158 571 515 384 371 505 484 585 549 36 28 71 65 79 81 31 65 47 92 90 149 75
99 278 349 448 548 88 104 172 212 188 240 15 29 89 147 165 262 208 318 411
660 647 1090 237 431 360 683 389 797 8 31 37 103 63 160 140 299 322 869 482
1513 104 416 154 679 199 1041 22 177 49 383 60 457 60 411 74 659 67 1182 -5
348 -19 645 -42 860 -68 655 -169 1315 -250 1630 -187 729 -377 1316 -547
1690 -30 66 -64 152 -76 192 -43 141 -378 778 -627 1193 -77 129 -165 278
-195 330 -65 115 -133 218 -189 285 -39 47 -62 96 -75 156 -4 16 -19 35 -40
47 -35 21 -81 76 -280 337 -223 293 -555 669 -911 1034 -281 287 -499 489
-800 741 -232 194 -334 287 -346 316 -2 5 -33 24 -69 41 -109 54 -541 341
-670 445 -35 28 -127 85 -204 127 -78 42 -181 103 -230 135 -105 70 -1310 668
-1446 719 -189 70 -909 307 -1065 351 -723 203 -1428 315 -2305 366 -178 11
-957 20 -1130 14z m1725 -2234 c205 -12 265 -26 354 -84 130 -84 168 -175 192
-463 14 -163 5 -1959 -10 -2217 -15 -248 -18 -265 -57 -300 -19 -18 -37 -48
-43 -72 -11 -42 -25 -54 -62 -54 -11 0 -31 -11 -45 -25 -44 -44 -135 -47
-1769 -51 l-1510 -3 -117 127 -118 127 0 820 c1 881 13 1663 30 1839 6 59 17
121 25 136 21 40 117 123 184 158 71 38 144 53 301 62 196 11 2453 11 2645 0z
m0 -5089 c194 -13 247 -23 341 -66 177 -81 188 -175 204 -1695 5 -503 9 -1539
10 -2301 0 -762 3 -1926 7 -2587 l6 -1202 391 -1 c468 0 956 -14 1046 -29 67
-11 187 -62 251 -106 46 -32 86 -105 104 -191 29 -137 35 -415 35 -1568 l0
-1160 -117 -117 -118 -118 -3461 0 -3461 0 -69 73 c-85 87 -133 147 -167 207
-45 77 -51 250 -52 1370 0 1034 3 1108 45 1277 49 189 150 283 347 319 88 16
451 29 1061 40 l412 6 0 2263 0 2263 -82 6 c-46 3 -247 8 -448 11 -471 8 -853
22 -937 35 -73 12 -109 28 -167 74 -22 17 -51 31 -65 31 -23 1 -32 14 -73 96
-64 128 -77 205 -88 554 -12 368 -12 1479 0 1767 20 470 59 578 248 676 119
61 191 72 587 82 418 12 4021 4 4210 -9z"/>
<path d="M2180 18489 c-68 -11 -150 -37 -170 -54 -8 -7 -30 -20 -47 -29 -37
-19 -99 -98 -133 -171 -23 -48 -24 -60 -26 -339 -2 -158 -5 -290 -7 -293 -3
-2 -324 -5 -713 -6 -646 -2 -714 -4 -768 -20 -33 -10 -70 -23 -82 -30 -12 -7
-40 -22 -63 -35 -40 -22 -131 -132 -131 -159 0 -7 -9 -13 -20 -13 -20 0 -20
-7 -20 -635 0 -617 1 -635 19 -635 11 0 24 -11 30 -27 46 -111 93 -165 181
-207 l65 -31 744 -3 c532 -2 749 -6 758 -14 11 -9 13 -50 7 -217 -8 -270 1
-335 64 -460 52 -103 88 -141 171 -180 l56 -26 1639 -5 c1339 -4 1642 -3 1657
8 18 13 19 67 19 1787 0 1599 -2 1775 -16 1789 -14 14 -171 16 -1587 15 -876
-1 -1596 -5 -1627 -10z"/>
<path d="M2185 11284 c-77 -17 -146 -41 -200 -70 -51 -28 -71 -47 -104 -97
-77 -119 -75 -110 -78 -426 -1 -156 -5 -287 -10 -292 -5 -5 -330 -10 -723 -11
-801 -4 -757 0 -890 -79 -53 -31 -72 -50 -105 -103 -24 -40 -47 -65 -57 -66
-17 0 -18 -37 -18 -635 0 -598 1 -635 18 -636 11 0 30 -27 57 -81 51 -102 108
-150 215 -181 21 -7 321 -13 775 -16 l740 -6 -4 -215 c-4 -275 5 -345 66 -465
24 -49 54 -100 65 -112 38 -41 129 -81 211 -92 118 -16 3239 -15 3255 1 16 16
18 3539 2 3569 -11 19 -38 19 -1603 18 -876 -1 -1601 -3 -1612 -5z"/>
</g>
</svg>
