<?xml version="1.0" standalone="no"?>
<!DOCTYPE svg PUBLIC "-//W3C//DTD SVG 20010904//EN"
 "http://www.w3.org/TR/2001/REC-SVG-20010904/DTD/svg10.dtd">
<svg version="1.0" xmlns="http://www.w3.org/2000/svg"
 width="998.000000pt" height="965.000000pt" viewBox="0 0 998.000000 965.000000"
 preserveAspectRatio="xMidYMid meet">

<g transform="translate(0.000000,965.000000) scale(0.100000,-0.100000)"
fill="#000000" stroke="none">
<path d="M473 9621 c-117 -29 -198 -75 -283 -160 -89 -90 -132 -166 -160 -282
-20 -84 -20 -109 -20 -4354 0 -4245 0 -4270 20 -4354 28 -117 71 -192 160
-281 89 -89 164 -132 281 -160 84 -20 109 -20 4519 -20 4410 0 4435 0 4519 20
117 28 192 71 281 160 89 89 132 164 160 281 20 84 20 109 20 4354 0 4245 0
4270 -20 4354 -28 117 -71 192 -161 282 -56 57 -94 85 -150 112 -154 73 278
67 -4656 66 -4215 0 -4442 -1 -4510 -18z m9038 -317 c71 -38 107 -75 139 -146
19 -42 20 -109 20 -3815 l0 -3773 -4680 0 -4680 0 0 3768 0 3767 29 60 c39 80
65 109 131 145 l55 30 4459 0 4458 0 69 -36z"/>
<path d="M1398 8848 c-52 -14 -113 -77 -127 -132 -16 -64 -16 -5808 0 -5872
15 -59 74 -118 133 -133 64 -16 7278 -16 7342 0 59 15 118 74 133 133 16 64
16 5808 0 5872 -15 59 -74 118 -133 133 -59 15 -7292 14 -7348 -1z m7192
-3068 l0 -2780 -3515 0 -3515 0 0 2780 0 2780 3515 0 3515 0 0 -2780z"/>
<path d="M4461 7867 c-19 -7 -43 -24 -54 -39 -14 -19 -107 -384 -309 -1209
-158 -651 -288 -1191 -288 -1201 0 -58 59 -108 127 -108 21 0 294 63 606 141
312 78 570 140 572 137 3 -3 -472 -1970 -491 -2031 -5 -16 6 -17 162 -15 l168
3 698 1495 c384 822 698 1507 698 1521 0 41 -40 92 -85 108 -39 13 -59 9 -613
-129 -315 -78 -575 -140 -577 -138 -3 2 106 303 241 669 135 365 246 677 246
693 -1 38 -29 76 -73 98 -31 16 -76 18 -514 17 -345 0 -490 -3 -514 -12z"/>
</g>
</svg>
