<?xml version="1.0" standalone="no"?>
<!DOCTYPE svg PUBLIC "-//W3C//DTD SVG 20010904//EN"
 "http://www.w3.org/TR/2001/REC-SVG-20010904/DTD/svg10.dtd">
<svg version="1.0" xmlns="http://www.w3.org/2000/svg"
 width="998.000000pt" height="965.000000pt" viewBox="0 0 998.000000 965.000000"
 preserveAspectRatio="xMidYMid meet">

<g transform="translate(0.000000,965.000000) scale(0.100000,-0.100000)"
fill="#000000" stroke="none">
<path d="M473 9621 c-117 -29 -198 -75 -283 -160 -89 -90 -132 -166 -160 -282
-20 -84 -20 -109 -20 -4354 0 -4245 0 -4270 20 -4354 28 -117 71 -192 160
-281 89 -89 164 -132 281 -160 84 -20 109 -20 4519 -20 4410 0 4435 0 4519 20
117 28 192 71 281 160 89 89 132 164 160 281 20 84 20 109 20 4354 0 4245 0
4270 -20 4354 -28 117 -71 192 -161 282 -56 57 -94 85 -150 112 -154 73 278
67 -4656 66 -4215 0 -4442 -1 -4510 -18z m507 -4166 l0 -3885 -335 0 -335 0 0
3768 0 3767 29 60 c39 80 65 109 131 145 l55 30 228 0 227 0 0 -3885z m7950 0
l0 -3885 -3835 0 -3835 0 0 3885 0 3885 3835 0 3835 0 0 -3885z m581 3849 c71
-38 107 -75 139 -146 19 -42 20 -109 20 -3815 l0 -3773 -230 0 -230 0 0 3885
0 3885 116 0 c114 0 117 -1 185 -36z"/>
<path d="M1598 8848 c-52 -14 -113 -77 -127 -132 -16 -64 -16 -5488 0 -5552
15 -59 74 -118 133 -133 64 -16 6878 -16 6942 0 59 15 118 74 133 133 16 64
16 5488 0 5552 -15 59 -74 118 -133 133 -59 15 -6893 14 -6948 -1z m6792
-2908 l0 -2620 -3315 0 -3315 0 0 2620 0 2620 3315 0 3315 0 0 -2620z"/>
<path d="M4371 8267 c-19 -7 -43 -24 -54 -39 -14 -19 -107 -384 -309 -1209
-158 -651 -288 -1191 -288 -1201 0 -58 59 -108 127 -108 21 0 294 63 606 141
312 78 570 140 572 137 2 -2 -122 -520 -275 -1151 -154 -630 -280 -1155 -280
-1165 0 -11 10 -34 23 -53 22 -33 24 -34 101 -37 61 -2 82 1 96 13 25 23 1570
3336 1570 3367 0 40 -41 91 -85 107 -39 13 -59 9 -613 -129 -315 -78 -575
-140 -577 -138 -3 2 106 303 241 669 135 365 246 677 246 693 -1 38 -29 76
-73 98 -31 16 -76 18 -514 17 -345 0 -490 -3 -514 -12z"/>
<path d="M4783 2439 c-52 -26 -82 -72 -89 -136 -7 -63 1 -77 164 -299 134
-183 165 -212 239 -228 44 -10 107 9 148 45 19 17 97 115 173 217 l137 186 0
61 c0 70 -25 119 -77 150 -31 19 -53 20 -343 23 -299 2 -312 2 -352 -19z"/>
</g>
</svg>
