<?xml version="1.0" standalone="no"?>
<!DOCTYPE svg PUBLIC "-//W3C//DTD SVG 20010904//EN"
 "http://www.w3.org/TR/2001/REC-SVG-20010904/DTD/svg10.dtd">
<svg version="1.0" xmlns="http://www.w3.org/2000/svg"
 width="1180.000000pt" height="1154.000000pt" viewBox="0 0 1180.000000 1154.000000"
 preserveAspectRatio="xMidYMid meet">

<g transform="translate(0.000000,1154.000000) scale(0.100000,-0.100000)"
fill="#000000" stroke="none">
<path d="M7285 11533 c-334 -22 -711 -116 -990 -247 -649 -306 -1206 -905
-1449 -1557 -118 -320 -169 -613 -169 -984 0 -454 77 -815 254 -1194 262 -560
792 -1089 1356 -1352 219 -103 504 -188 748 -224 233 -35 577 -37 815 -6 812
107 1603 633 2025 1346 153 259 276 575 346 895 31 141 34 336 5 393 -25 50
-80 86 -142 93 -46 6 -57 2 -194 -68 -210 -108 -801 -458 -1429 -845 -101 -63
-187 -112 -192 -111 -4 2 -275 152 -603 333 l-595 330 0 705 0 705 920 529
c667 384 929 539 954 567 31 34 55 91 55 129 0 39 -25 95 -56 130 -68 75 -274
187 -484 263 -344 124 -819 193 -1175 170z"/>
<path d="M2334 5398 c-1189 -1190 -2176 -2185 -2194 -2211 -49 -74 -100 -191
-117 -270 -19 -93 -19 -262 1 -357 21 -100 91 -239 162 -320 31 -36 217 -227
413 -426 378 -382 425 -422 571 -482 106 -43 178 -55 310 -54 183 1 333 51
466 155 33 25 1023 1010 2202 2190 l2144 2144 -49 18 c-211 80 -502 250 -728
426 -439 341 -804 819 -1007 1317 l-13 32 -2161 -2162z m-352 -1872 c108 -33
202 -118 255 -232 24 -51 28 -71 28 -154 0 -83 -4 -103 -28 -154 -108 -231
-374 -316 -577 -186 -120 77 -190 203 -190 341 0 168 122 333 283 384 57 18
172 18 229 1z"/>
<path d="M8965 5309 c-151 -6 -238 -17 -375 -46 -168 -36 -368 -98 -486 -153
-23 -10 -54 -22 -68 -26 -14 -3 -26 -10 -26 -15 0 -5 -5 -9 -12 -9 -15 0 -100
-41 -115 -55 -6 -7 -26 -18 -45 -25 -18 -8 -35 -17 -38 -20 -10 -12 -140 -90
-150 -90 -5 0 -10 -4 -10 -8 0 -4 -34 -32 -77 -62 -104 -75 -273 -226 -374
-335 -46 -50 -91 -96 -101 -103 -10 -7 -18 -19 -18 -25 0 -7 -16 -29 -35 -50
-19 -21 -35 -40 -35 -43 0 -10 -95 -144 -102 -144 -4 0 -8 -6 -8 -13 0 -8 -13
-32 -29 -54 -16 -22 -32 -49 -35 -61 -4 -12 -13 -28 -19 -34 -18 -19 -108
-208 -137 -288 -7 -19 -19 -48 -26 -65 -24 -54 -72 -218 -93 -315 -55 -258
-69 -388 -66 -632 3 -246 22 -406 76 -633 30 -129 142 -437 171 -470 4 -5 8
-14 8 -20 0 -14 108 -206 167 -297 23 -37 43 -72 43 -77 0 -5 4 -11 8 -13 5
-1 35 -37 66 -78 183 -238 373 -417 644 -605 52 -36 51 -36 132 -82 36 -20 67
-39 70 -43 7 -9 168 -90 180 -90 10 0 110 -43 142 -60 10 -6 26 -10 36 -10 10
0 22 -4 28 -9 18 -17 309 -93 424 -111 166 -26 235 -31 440 -31 225 0 345 9
495 35 146 26 322 71 390 101 17 7 53 20 81 28 28 8 60 20 70 25 11 6 46 23
79 38 99 45 227 115 312 170 28 19 54 34 57 34 2 0 41 27 84 60 44 33 83 60
87 60 4 0 16 11 27 25 11 14 24 25 30 25 6 0 65 54 133 121 68 66 132 127 144
135 12 8 21 20 21 25 0 9 51 73 145 183 14 16 25 30 25 33 0 2 17 30 38 61 86
127 252 429 252 458 0 5 6 20 13 34 51 97 148 450 162 590 4 36 13 108 21 160
22 148 18 366 -10 580 -14 102 -31 212 -39 245 -43 174 -100 357 -137 432 -11
23 -20 46 -20 50 0 14 -105 216 -143 275 -18 29 -44 73 -58 98 -13 24 -32 52
-41 62 -10 10 -18 25 -18 33 0 8 -4 15 -8 15 -5 0 -24 21 -43 47 -100 140
-310 361 -438 462 -44 36 -81 68 -81 73 0 4 -5 8 -10 8 -9 0 -166 104 -180
120 -3 3 -23 14 -44 25 -22 11 -44 25 -50 30 -6 6 -74 41 -151 78 -77 38 -149
73 -160 79 -11 6 -45 19 -75 29 -30 9 -68 22 -85 28 -291 105 -632 148 -1030
130z m570 -549 c53 -33 57 -59 53 -404 -2 -236 -6 -310 -15 -314 -7 -2 -13
-10 -13 -18 0 -8 -7 -14 -15 -14 -8 0 -15 -4 -15 -10 0 -6 -137 -10 -391 -10
l-391 0 -29 31 -29 31 0 325 c0 210 4 331 11 344 5 11 25 29 42 39 30 19 53
20 396 20 345 0 365 -1 396 -20z m-11 -1215 c65 -31 61 30 64 -967 l2 -908
174 0 c137 0 179 -3 204 -16 63 -31 62 -26 62 -387 l0 -329 -29 -29 -29 -29
-831 0 -830 0 -26 28 c-15 15 -31 37 -36 50 -5 13 -9 153 -9 311 0 412 -12
395 261 399 l189 4 0 543 0 543 -184 4 c-164 3 -186 5 -205 22 -12 11 -21 15
-22 10 0 -5 -9 9 -19 31 -17 36 -19 70 -19 335 -1 332 2 349 69 382 32 17 83
18 608 18 490 0 579 -2 606 -15z"/>
</g>
</svg>
