<?xml version="1.0" standalone="no"?>
<!DOCTYPE svg PUBLIC "-//W3C//DTD SVG 20010904//EN"
 "http://www.w3.org/TR/2001/REC-SVG-20010904/DTD/svg10.dtd">
<svg version="1.0" xmlns="http://www.w3.org/2000/svg"
 width="850.000000pt" height="850.000000pt" viewBox="0 0 850.000000 850.000000"
 preserveAspectRatio="xMidYMid meet">

<g transform="translate(0.000000,850.000000) scale(0.100000,-0.100000)"
fill="#000000" stroke="none">
<path d="M4123 8241 c-164 -27 -329 -106 -460 -222 -165 -145 -3218 -3211
-3255 -3269 -56 -87 -96 -172 -124 -267 -23 -75 -27 -108 -28 -223 -1 -152 10
-216 59 -337 70 -173 12 -113 1759 -1859 1425 -1425 1641 -1637 1709 -1679
301 -184 668 -178 958 15 75 50 3250 3215 3330 3320 105 137 166 304 176 480
10 181 -30 345 -123 503 -45 76 -177 211 -1684 1718 -1279 1280 -1651 1646
-1707 1683 -81 53 -190 100 -278 122 -73 17 -261 26 -332 15z m942 -2811 l160
-160 485 0 485 0 162 -162 163 -163 0 -650 0 -650 -163 -163 -162 -162 -160 0
-160 0 -160 -160 -160 -160 -325 0 -325 0 -80 -80 -80 -80 -495 0 -495 0 -80
80 -80 80 -325 0 -325 0 -160 160 -160 160 -160 0 -160 0 -162 162 -163 163 0
650 0 650 163 163 162 162 490 0 490 0 160 160 160 160 650 0 650 0 160 -160z"/>
<path d="M2310 4290 l0 -650 643 0 642 0 165 165 165 165 325 0 325 0 165
-165 165 -165 645 2 645 3 2 648 3 647 -1945 0 -1945 0 0 -650z m1290 165 l0
-165 -485 0 -485 0 0 165 0 165 485 0 485 0 0 -165z"/>
</g>
</svg>
