<?xml version="1.0" standalone="no"?>
<!DOCTYPE svg PUBLIC "-//W3C//DTD SVG 20010904//EN"
 "http://www.w3.org/TR/2001/REC-SVG-20010904/DTD/svg10.dtd">
<svg version="1.0" xmlns="http://www.w3.org/2000/svg"
 width="454.000000pt" height="274.000000pt" viewBox="0 0 454.000000 274.000000"
 preserveAspectRatio="xMidYMid meet">

<g transform="translate(0.000000,274.000000) scale(0.100000,-0.100000)"
fill="#000000" stroke="none">
<path d="M1455 2580 l-160 -160 -485 0 -485 0 -158 -158 -157 -158 0 -649 0
-649 162 -163 163 -163 160 0 160 0 160 -160 160 -160 325 0 325 0 80 -80 80
-80 485 0 485 0 80 80 80 80 325 0 325 0 160 160 160 160 164 0 165 0 163 162
163 162 0 646 0 645 -163 163 -162 162 -485 0 -485 0 -160 160 -160 160 -655
0 -655 0 -160 -160z m2762 -1127 l-2 -648 -645 -3 -645 -2 -165 165 -165 165
-325 0 -325 0 -165 -165 -165 -165 -642 0 -643 0 0 650 0 650 1945 0 1945 0
-3 -647z"/>
<path d="M650 1615 l0 -165 485 0 485 0 0 165 0 165 -485 0 -485 0 0 -165z"/>
</g>
</svg>
